HIERARCHY
ROOT Hips
{
	OFFSET	0.00	0.00	0.00
	CHANNELS 6 Xposition Yposition Zposition Zrotation Xrotation Yrotation
	JOINT LeftUpLeg
	{
		OFFSET	 0.126116	-0.065224	 0.014019
		CHANNELS 3 Zrotation Xrotation Yrotation
		JOINT LeftLeg
		{
			OFFSET	 0.000000	 0.569914	 0.000000
			CHANNELS 3 Zrotation Xrotation Yrotation
			JOINT LeftFoot
			{
				OFFSET	 0.000000	 0.544423	 0.000000
				CHANNELS 3 Zrotation Xrotation Yrotation
				JOINT LeftToeBase
				{
					OFFSET	 0.000000	 0.207117	 0.000000
					CHANNELS 3 Zrotation Xrotation Yrotation
					End Site
					{
						OFFSET	 0.000000	 0.207117	 0.000000
					}
				}
			}
		}
	}
	JOINT RightUpLeg
	{
		OFFSET	-0.124023	-0.065224	 0.008373
		CHANNELS 3 Zrotation Xrotation Yrotation
		JOINT RightLeg
		{
			OFFSET	 0.000000	 0.570047	 0.000000
			CHANNELS 3 Zrotation Xrotation Yrotation
			JOINT RightFoot
			{
				OFFSET	 0.000000	 0.544354	 0.000000
				CHANNELS 3 Zrotation Xrotation Yrotation
				JOINT RightToeBase
				{
					OFFSET	 0.000000	 0.207540	 0.000000
					CHANNELS 3 Zrotation Xrotation Yrotation
					End Site
					{
						OFFSET	 0.000000	 0.207540	 0.000000
					}
				}
			}
		}
	}
	JOINT Spine
	{
		OFFSET	 0.000184	 0.117403	 0.007763
		CHANNELS 3 Zrotation Xrotation Yrotation
		JOINT Spine1
		{
			OFFSET	 0.000000	 0.137269	 0.000000
			CHANNELS 3 Zrotation Xrotation Yrotation
			JOINT Spine2
			{
				OFFSET	 0.000000	 0.156879	 0.000000
				CHANNELS 3 Zrotation Xrotation Yrotation
				JOINT LeftShoulder
				{
					OFFSET	 0.080501	 0.160143	 0.002496
					CHANNELS 3 Zrotation Xrotation Yrotation
					JOINT LeftArm
					{
						OFFSET	 0.000000	 0.164363	 0.000000
						CHANNELS 3 Zrotation Xrotation Yrotation
						JOINT LeftForeArm
						{
							OFFSET	 0.000000	 0.364576	 0.000000
							CHANNELS 3 Zrotation Xrotation Yrotation
							JOINT LeftHand
							{
								OFFSET	 0.000000	 0.360812	 0.000000
								CHANNELS 3 Zrotation Xrotation Yrotation
								JOINT LeftHandIndex1
								{
									OFFSET	 0.000000	 0.086006	 0.000000
									CHANNELS 3 Zrotation Xrotation Yrotation
									JOINT LeftHandIndex2
									{
										OFFSET	 0.000000	 0.047237	 0.000000
										CHANNELS 3 Zrotation Xrotation Yrotation
										JOINT LeftHandIndex3
										{
											OFFSET	-0.004284	 0.038165	 0.000551
											CHANNELS 3 Zrotation Xrotation Yrotation
											End Site
											{
												OFFSET	-0.004284	 0.038165	 0.000551
											}
										}
									}
								}
							}
						}
					}
				}
				JOINT Neck
				{
					OFFSET	 0.000000	 0.176489	 0.000000
					CHANNELS 3 Zrotation Xrotation Yrotation
					JOINT Head
					{
						OFFSET	 0.000000	 0.077941	 0.001747
						CHANNELS 3 Zrotation Xrotation Yrotation
						End Site
						{
							OFFSET	 0.000000	 0.077941	 0.001747
						}
					}
				}
				JOINT RightShoulder
				{
					OFFSET	-0.080363	 0.159706	-0.000306
					CHANNELS 3 Zrotation Xrotation Yrotation
					JOINT RightArm
					{
						OFFSET	 0.000000	 0.164196	 0.000000
						CHANNELS 3 Zrotation Xrotation Yrotation
						JOINT RightForeArm
						{
							OFFSET	 0.000000	 0.365611	 0.000000
							CHANNELS 3 Zrotation Xrotation Yrotation
							JOINT RightHand
							{
								OFFSET	 0.000000	 0.360648	 0.000000
								CHANNELS 3 Zrotation Xrotation Yrotation
								JOINT RightHandIndex1
								{
									OFFSET	 0.000000	 0.069977	 0.000000
									CHANNELS 3 Zrotation Xrotation Yrotation
									JOINT RightHandIndex2
									{
										OFFSET	 0.000000	 0.052305	 0.000000
										CHANNELS 3 Zrotation Xrotation Yrotation
										JOINT RightHandIndex3
										{
											OFFSET	 0.009002	 0.042196	 0.000782
											CHANNELS 3 Zrotation Xrotation Yrotation
											End Site
											{
												OFFSET	 0.009002	 0.042196	 0.000782
											}
										}
									}
								}
							}
						}
					}
				}
			}
		}
	}
}
MOTION
Frames:    6
Frame Time: 0.03333334
-0.006809	 1.233546	 0.011187	 1.975783	 0.373246	 172.032000	-159.998000	 12.808190	-28.160560	 5.574539	-20.045850	 3.026291	-12.009050	 62.799280	 4.238701	 1.161826	 26.686550	-2.659579	 173.472100	 10.532000	 19.421070	-2.523066	-30.185770	 7.721432	 13.395300	 77.261370	-9.608737	-1.288802	 28.369970	 2.710437	 2.301513	 6.304155	 0.968079	 0.482604	 3.912431	 0.909640	 1.440910	-3.370983	 0.577215	-113.110400	 6.495852	 92.943960	 51.610340	 23.489500	-16.707230	 4.222366	-0.208305	-0.288241	-6.362882	 27.561720	 8.220789	 0.627221	 8.447400	-0.355369	-5.948783	 13.623870	 1.522916	 4.989303	-3.440169	-0.332956	 3.183417	-6.827464	 0.884910	-1.255815	-5.478454	 3.572817	 123.402200	 10.382840	-96.377470	-6.343988	 39.783770	-2.619242	-5.278321	-0.199859	 0.261515	-1.755299	 3.131220	-21.636840	-2.331623	 4.920008	 0.895307	 12.544680	 22.989780	-5.181492	-8.501317	 13.176420	-0.530184
-0.007137	 1.234709	 0.011722	 1.875367	 0.172619	 171.081800	-159.725800	 12.761600	-29.779120	 5.637297	-20.252560	 2.660613	-12.482090	 62.586640	 4.950501	 1.160991	 26.675250	-2.659248	 173.319400	 10.955580	 19.548600	-2.521590	-30.284910	 7.333415	 11.153310	 76.920760	-7.446184	-1.288003	 28.359460	 2.710099	 2.765711	 6.132899	-1.165783	 0.249850	 3.844676	 1.010967	 1.586929	-3.504937	 0.775171	-112.746400	 6.547131	 92.982090	 51.670350	 23.668320	-16.598890	 5.070886	-0.209378	-1.194114	-5.534454	 25.667470	 7.060312	 0.909701	 7.570075	-0.351170	-5.945222	 13.820890	 1.544043	 5.003538	-3.127041	-0.325443	 3.173091	-6.835155	 0.944394	-1.265674	-5.653485	 4.027627	 123.158100	 10.422540	-96.351880	-6.177407	 39.728780	-2.421758	-6.127391	-0.200453	 1.167445	-3.349812	 1.089066	-19.977780	-2.433832	 5.240104	 0.891551	 12.607930	 23.834380	-5.386820	-8.507102	 13.867740	-0.573854
-0.007663	 1.235846	 0.012818	 1.725481	-0.147538	 169.561100	-159.339400	 12.681700	-32.011410	 5.725307	-20.541570	 2.074615	-13.409940	 62.424960	 6.176941	 1.159663	 26.657270	-2.658720	 173.229100	 11.656570	 19.365920	-2.516138	-30.399290	 6.717495	 7.820233	 76.469540	-4.249590	-1.286733	 28.342750	 2.709562	 3.490615	 5.808450	-4.711155	 0.219884	 3.827534	 1.042191	 1.662291	-3.760863	 1.044359	-112.167300	 6.629213	 93.042080	 51.864680	 23.976190	-16.539920	 6.415804	-0.210784	-2.632193	-4.361819	 22.544010	 4.956295	 1.358717	 6.172707	-0.335513	-5.939705	 14.134360	 1.577671	 5.026095	-2.628784	-0.313655	 3.156680	-6.847417	 1.039032	-1.278368	-5.932320	 4.752077	 122.769600	 10.485470	-96.310780	-6.049680	 39.591470	-2.019579	-7.468697	-0.201239	 2.605810	-5.795629	-2.201045	-17.745640	-2.596543	 5.749468	 0.886752	 12.716460	 25.179060	-5.718831	-8.515224	 14.968350	-0.643512
-0.008416	 1.237092	 0.014588	 1.533033	-0.593820	 167.445700	-158.823900	 12.542310	-34.885070	 5.824797	-20.866890	 1.257385	-14.782290	 62.283780	 7.916472	 1.157830	 26.632450	-2.657993	 173.270400	 12.629500	 18.948240	-2.553893	-30.461350	 5.767623	 3.456435	 75.824120	-0.123597	-1.284978	 28.319660	 2.708820	 4.450554	 5.260305	-9.803967	 0.706348	 4.007741	 0.709881	 1.534047	-4.206605	 1.515256	-111.367100	 6.743642	 93.123650	 52.226290	 24.288230	-16.590800	 8.257517	-0.212410	-4.604911	-3.047222	 18.235570	 1.674714	 1.978713	 4.240472	-0.295827	-5.932385	 14.567350	 1.624145	 5.057075	-1.940487	-0.297699	 3.134044	-6.864395	 1.169745	-1.289864	-6.317740	 5.754104	 122.232800	 10.571940	-96.253270	-6.115001	 39.220670	-1.307361	-9.302136	-0.201762	 4.578793	-9.115588	-6.576323	-15.301540	-2.821501	 6.453133	 0.882510	 12.883010	 27.037430	-6.188987	-8.524228	 16.489630	-0.740150
-0.009450	 1.238566	 0.016924	 1.301041	-1.166884	 164.796900	-158.193300	 12.323840	-38.319330	 5.918464	-21.171850	 0.228322	-16.551600	 62.141080	 10.108770	 1.155546	 26.601520	-2.657089	 173.501700	 13.816380	 18.162040	-2.546988	-30.393440	 4.675044	-1.587656	 74.911190	 4.561021	-1.282794	 28.290900	 2.707898	 5.618853	 4.405511	-16.229690	 1.676946	 4.570808	 0.088271	 1.210386	-4.930828	 2.037710	-110.370100	 6.887737	 93.222980	 52.682210	 24.359970	-16.733200	 10.510600	-0.213804	-7.024872	-1.857068	 13.184070	-2.716529	 2.752263	 1.831598	-0.217132	-5.923752	 15.106820	 1.682098	 5.095393	-1.082863	-0.278347	 3.105898	-6.885620	 1.332591	-1.294334	-6.798193	 7.004028	 121.563700	 10.678940	-96.180450	-6.518555	 38.522280	-0.217388	-11.544370	-0.201945	 6.999364	-13.272490	-11.509570	-12.882680	-3.102197	 7.329924	 0.881114	 13.119290	 29.352840	-6.795524	-8.531772	 18.385980	-0.861400
-0.010967	 1.240369	 0.019532	 0.988680	-1.893299	 161.528900	-157.454100	 12.001440	-42.390430	 6.012153	-21.475680	-1.047397	-18.774930	 62.014960	 12.783180	 1.152734	 26.563390	-2.655977	 173.930500	 15.209920	 17.041320	-2.521068	-30.138840	 3.347170	-7.022414	 73.633450	 9.504985	-1.280103	 28.255450	 2.706763	 6.861261	 3.173754	-23.788090	 2.959953	 5.612125	-0.747547	 0.783938	-6.004501	 2.669427	-109.141200	 7.067693	 93.341990	 53.017130	 23.981740	-16.803390	 13.200420	-0.214806	-9.919987	-0.751151	 7.865613	-8.063609	 3.710082	-1.135738	-0.075429	-5.913862	 15.771700	 1.753614	 5.142212	-0.025862	-0.255288	 3.071291	-6.911888	 1.533284	-1.284845	-7.389613	 8.545472	 120.738500	 10.809630	-96.088940	-7.240313	 37.514930	 1.250749	-14.227380	-0.201735	 9.894974	-18.335890	-16.639900	-10.060980	-3.448935	 8.410522	 0.885362	 13.458300	 32.203420	-7.579069	-8.535293	 20.723300	-1.012459
